<?xml version="1.0" encoding="utf-8"?>
<!-- Generator: Adobe Illustrator 28.0.0, SVG Export Plug-In . SVG Version: 6.00 Build 0)  -->
<svg version="1.1" xmlns="http://www.w3.org/2000/svg" xmlns:xlink="http://www.w3.org/1999/xlink" width="595.3px" height="841.9px" ViewBox="0 0 595.3 841.9" xml:space="preserve">
<style>
	svg {filter: drop-shadow(0 0 16px rgb(0 0 0 / 0.4));}
	path {fill:#ffffff;}
</style>
<g>
	<path d="M66.8,125.3c-0.8,0.4-1.2,0.5-1.4,0.7c-6.3,5.1-12.5,10.2-18.7,15.4c-0.6,0.5-1.1,1.4-1.1,2.2
		c-0.3,2.8-0.5,5.5-0.5,8.3c0,32.9,0,65.8,0,98.7c0,0.9,0.1,1.8,0.2,2.9c1.4,0,2.5,0,3.7,0c98,0,196,0,294,0.1
		c4.7,0,8.7-1.3,12.5-3.5c6.4-3.8,10.8-9.6,14.1-16.1c6.8-13.1,6.7-13.2,6.7-27.9c0-2.7,0-5.4,0-8.1c-0.1-5.5,1.1-5.2-5.1-5.2
		c-100,0-200,0-299.9,0c-4,0-4,0-4-3.9c0-19.8,0-39.6-0.1-59.4C67,128.2,66.8,126.9,66.8,125.3z M62.4,54.7
		c-1.1-0.4-2.3-1.1-3.5-1.1c-3.7-0.1-7.5,0.1-11.2-0.1c-2.6-0.1-3.4,0.7-3.4,3.3c0.1,18.5,0,37,0.1,55.5c0,5.1-1.1,4.9,4.8,4.9
		c83.9,0,167.9,0,251.8,0c15.2,0,30.4,0.2,45.6,0.3c5.2,0,8.1,1.6,9.3,5.7c0.7,2.4,0.9,4.9,0.9,7.4c0.4,17.8,0.8,35.6,1,53.4
		c0,2,0.6,2.8,2.7,2.7c2.9-0.1,5.7,0,8.6,0c8.1-0.1,6.5,1.3,6.6-6.6c0.3-22,0-43.9-0.1-65.9c0-7.9-0.7-15.8-0.4-23.7
		c0.3-5.6-1-10.5-4.5-14.7c-2.5-3-5.3-5.9-8.2-8.6c-1.9-1.8-4.1-3.6-6.4-4.4c-4.2-1.6-8.7-2-13.2-2c-90.4,0-180.7,0-271.1,0
		c-1.7,0-3.4,0-5.1,0c-0.1-2-0.1-3.6-0.3-5.1c-0.1-1.1-0.3-2.5-2-2.1C63.7,53.8,62.9,54.5,62.4,54.7z M491.8,104.4
		c0.8,0.4,1.7,0.8,2.4,1.3c1.8,1.5,3.3,3.7,5.4,4.5c5.4,2.3,11.1,3.9,16.5,6.1c1.7,0.7,3.9,1.8,4.3,3.3c1.2,4.1,2.3,8.4,2.3,12.7
		c0.1,11.5-1.3,23-3.3,34.3c-0.9,5-3.7,9.1-8.1,11.1c-5,2.3-10.4,3.9-15.9,4.8c-11.1,1.8-22.3,2.8-33.5,4.1
		c-4.5,0.5-8.9,1.8-13.3,1.6c-8-0.3-7.4,0.4-9.1-6.9c-0.1-0.3-0.2-0.5-0.2-0.7c-2.2-9.8-4.8-19.5-4.9-29.7c-0.1-5-0.6-10.1-0.3-15
		c0.3-4.9,1.1-9.8,2.4-14.5c0.7-2.6,2.9-4.8,4-7.4c2.2-4.9,4.2-9.9,6.3-14.8c3.7-8.6,7.5-17.2,11.3-25.8c1.5-3.4,0.5-6-3.1-7.8
		c-3.8-1.9-7.7-3.6-11.5-5.3c-2.8-1.3-3.1-1.8-1.5-4.4c1.2-2,0.8-3.1-1.4-4c-4.5-1.8-9-3.7-13.3-5.8c-2.3-1.2-3.5-0.8-4.7,1.5
		c-4.2,7.5-8.7,14.7-12.7,22.2c-3.9,7.1-6.8,14.7-8.7,22.6c-1.2,4.8,0.5,9.3,2.1,13.6c0.9,2.4,3.1,4.1,6,5.3c4.2,1.7,8.1,4.3,12,6.8
		c0.7,0.4,1,2.2,0.7,3.1c-0.6,1.9-1.6,3.7-2.6,5.3c-3.3,5.4-4.8,11.3-5.2,17.4c-0.8,12.2,1.5,24,4.1,35.8c0.6,2.6,0.8,5.3,1.3,7.9
		c0.3,1.9-0.3,2.8-2.3,2.7c-2.3-0.1-4.7,0.1-7,0.1c-3.6,0.1-7.3,0-10.9,0.5c-2.1,0.2-4.5,0.8-4.8,3.6c-0.3,1.9-0.4,3.8-0.4,5.7
		c0.1,9.5,0.5,18.9,0.4,28.4c-0.2,8.1-0.9,16.2-1.5,24.4c-0.3,3.8,1.4,6.3,4.1,5.7c8.5-1.9,17.1-3.7,25.6-5.4
		c10.3-2.1,20.6-4,30.8-6.1c7.5-1.5,15-3.2,22.5-5c3-0.7,5.9-1.9,8.9-2.6c5.9-1.3,11.9-2.1,17.6-3.8c4.4-1.3,8.6-3.4,12.7-5.5
		c3.6-1.9,7.5-3.8,10.3-6.6c7.9-7.8,12-17.5,12.9-28.5c1.1-13.9,1.7-27.9,2.7-41.8c0.9-12.9,2.6-25.7,6.1-38.2
		c3.5-12.8,7.1-25.6,7.7-38.9c0.1-1.6-0.1-4.1-1.1-4.8c-3.3-2.1-7.1-3.6-10.7-5.1c-4.2-1.7-8.6-3-12.9-4.6c-1.3-0.5-1.9-1.4-1-2.9
		c0.4-0.6,0.5-1.5,1-2.1c1.1-1.6,0.5-2.4-1.1-3.1c-4.1-1.6-8.2-3.3-12.2-5.1c-3.2-1.4-6.1-0.3-7.4,3c-0.5,1.3-0.9,2.7-1.7,3.8
		c-7.4,11.4-11.4,24.3-16.4,36.7C489.7,96.2,489.2,100.6,491.8,104.4z M202.9,418.8c-0.3,0-0.5,0.1-0.8,0.1
		c-0.7-1.2-1.6-2.4-2.1-3.7c-1.7-3.7-3.4-7.4-4.9-11.2c-4.7-11.8-9.4-23.6-13.9-35.5c-4.1-11.1-7.6-22.4-12-33.4
		c-3.4-8.5-7.7-16.7-11.6-24.9c-0.5-1-1.3-1.9-2.1-2.6c-0.5-0.4-1.9-0.5-2.2-0.1c-1.9,1.9-4.2,3.7-5.4,6.1c-1.7,3.3-2.8,7-3.9,10.6
		c-2.1,6.6-2.2,13.4-1.3,20.3c1.4,11.8,5.2,22.9,10.6,33.3c1.5,2.9,1.6,5.9,1.1,8.8c-1.6,10.1-3.6,20.2-5.2,30.4
		c-2,13.2-3.9,26.4-5.6,39.7c-1.5,12-2.6,24.1-4.2,36c-1.8,13.1-3.9,26.1-5.9,39.2c-0.5,3.1-0.2,3.6,2.9,3.6c8,0.1,16,0,24,0.1
		c2,0,2.7-0.7,2.8-2.7c0.6-15.4,1.3-30.8,2.1-46.2c0.1-2.9,0.3-5.9,0.6-8.8c0.8-8.8,1.7-17.6,2.4-26.3c0.6-7.7,1.1-15.4,1.7-23
		c0.1-1.4,0.8-2.7,1.4-4.7c1.1,1.5,1.9,2.2,2.2,3.1c1.5,3.7,2.8,7.4,4.3,11.1c5.2,12.3,10.5,24.6,15.8,36.9
		c6.2,14.4,12.4,28.9,18.5,43.3c2,4.6,3.8,9.3,5.9,13.8c1.3,2.8,2.9,3.1,5,1c3.7-3.8,7.5-7.6,10.8-11.7c2.2-2.6,4.2-5.6,5.4-8.8
		c2-5,3.6-9.9,0.6-15.6c-5.7-10.7-10.8-21.8-16.1-32.8c-3.3-6.8-6.4-13.6-9.7-20.4c-1.3-2.6-1.1-5,0.1-7.5c0.7-1.5,1.5-2.9,2.1-4.5
		c5.1-13.6,5.9-27.4,2.3-41.5c-0.8-3-1.4-6-1.8-9.1c-0.1-0.7,0.7-1.9,1.3-2.1c1.7-0.5,3.5-0.8,5.3-0.9c5.3-0.2,7.5-1.8,8.4-7.1
		c0.5-2.9,0.8-5.8,1-8.7c0.4-5.2,0.5-10.5,1.1-15.8c1-9.4,2.3-18.8,2-28.4c-0.2-6.8,0-6.8-6.8-6.7c-5,0.1-10,0-15.1-0.1
		c-0.7,0-1.4-0.2-2-0.5c-2.5-1.5-4.9-3.1-7.4-4.5c-3.9-2.1-5.1-2.1-6.2,2.3c-0.4,1.7-0.4,3.6-0.5,5.4c-0.3,4.1-0.6,8.2-1,12.3
		c-0.3,3.3-0.6,6.7-1,10c-0.5,4.6-1.1,9.1-1.7,13.7c-0.8,6.7-1.8,13.3-2.5,20c-0.5,4.9,1,6.7,5.9,6.7c3,0,4.4,1.4,4.9,3.9
		c0.9,4,1.6,8.1,2.1,12.2c0.4,3.3,0.5,6.7,0.4,10.1c-0.1,3-0.5,6-0.9,9C204,414.6,203.4,416.7,202.9,418.8z M45,321.4
		c0,16.2,0,32.5,0,48.7c0,3.9,2.1,6.4,5.9,7.1c1.4,0.2,2.9,0.2,4.4,0.2c15.4,0,30.9,0,46.3,0c1.1,0,2.2,0.2,3.2,0.6
		c7.1,2.7,9.5,11,7.8,17.4c-1.4,5.5-3,11.1-5.3,16.3c-7.8,18.2-16.9,35.9-27,53c-4.3,7.3-9,14.4-13.4,21.7c-0.5,0.9-1.1,2.2-0.8,3
		c3.7,9.6,7.7,19,11.5,28.6c2.1,5.4,3.8,10.9,5.9,16.3c0.3,0.7,1.3,1.5,1.9,1.5c0.7,0,1.7-0.9,1.9-1.6c2.2-7.4,4.4-14.9,6.5-22.4
		c1.6-5.8,2.9-11.6,4.6-17.3c2.7-9,5.6-17.9,8.3-26.8c3.3-10.6,6.1-21.5,9.8-31.9c5.7-15.7,12.1-31.1,18.2-46.6
		c0.9-2.4,2.2-4.8,2.6-7.3c2.2-13.9,2-27.6-3-41c-3.7-9.9-8.2-19.2-16.9-25.9c-3.4-2.7-7.2-3.7-11.3-3.7c-8.3,0-16.6,0.3-24.9,0.4
		c-4.8,0.1-9.5-0.1-14.3-0.2c-2.7-0.1-6.6-3.1-6.9-5.3c-0.3-2.3-0.6-4.6-0.6-7c-0.1-7.6,0-15.1,0-22.7c0-1.4-0.1-2.8-0.4-4.1
		c-0.6-2.3-1.7-4.1-4.6-3.8c-1.8,0.2-3.6,0.2-5.4,0c-3.4-0.3-3.8,0-3.8,3.3C45,288.4,45,304.9,45,321.4z M290.8,537.7
		c4.7-2.1,8.3-4.1,12.2-5.4c2.5-0.8,3.9-2,4.2-4.5c0.4-3.7,0.9-7.4,1.1-11.1c0.4-9,0.6-18,1.1-27c0.5-9.6,1.2-19.1,1.9-28.7
		c0.8-10.4,1.8-20.7,2.6-31c0.9-12,1.5-24,2.5-36c0.6-7.3,1.7-14.6,2.4-21.8c0.5-4.4,1-8.7,1-13.1c0.1-6.6-0.2-13.2-0.5-19.7
		c-0.1-2-0.6-3.9-1.1-5.8c-0.5-2-1.4-3.9-1.8-5.8c-1.4-7.2-4.3-13.2-12-15.3c-3.4-0.9-6.9-2-10.4-2.1c-7.3-0.3-14.7-0.1-22,0.2
		c-2.5,0.1-3.7-0.9-4.6-2.8c-1.2-2.5-2.9-3.1-5.5-2.4c-1.5,0.4-3.5,0.5-4.7-0.2c-2.8-1.4-5.3-1.1-7.9,0.3c-0.5,0.3-1.1,1.1-1.2,1.7
		c-0.5,6.3-0.7,12.5-1.2,18.8c-1,12.7-0.5,25.5-0.6,38.2c0,3.3,0.7,6.5,0.8,9.8c0.1,2.8,2.1,3.8,4.2,4.1c3.1,0.4,6.2,0.6,9.3,0.5
		c7.4-0.2,14.7-0.7,22.1-1c6.1-0.2,10.9,5.1,10.2,11.2c-0.4,3.5-1,7-1.1,10.5c-0.1,6.2,0.2,12.3-0.4,18.5c-0.9,10-0.5,20.1-0.6,30.1
		c-0.2,14-0.4,28.1-0.6,42.1c-0.1,11.2-0.2,22.4-0.1,33.6C290.1,528,290.5,532.4,290.8,537.7z M132,608.6c-0.7-5.4-1.4-9.5-1.7-13.6
		c-0.4-4.5-2.9-7.5-6.7-9c-4.7-1.8-9.6-2.8-14.6-3.7c-8.2-1.6-16.4-2.8-24.6-4.1c-2.4-0.4-3.2-1.4-2.8-3.8c0.6-4.2-0.4-5.3-4.7-6.1
		c-6.7-1.2-13.6-1.4-19.9-4.6c-0.3-0.2-0.7-0.1-1-0.2c-1.9-0.5-3,0.3-3.6,2c-0.7,2-1.5,4.1-2,6.2c-3.2,14.2-6.4,28.3-9.5,42.5
		c-1,4.6-1.2,9.3,0.9,13.7c0.2,0.5,0.5,1.2,0.9,1.5c2.1,1.2,4.2,2.2,6.3,3.3c6.6,3.6,13.8,4.7,21.1,5.7c5,0.7,10,2.1,14.9,3.3
		c2.5,0.6,3.9,2.7,4,5c0.2,4,0.4,8-0.3,11.9c-2.9,14.9-6.1,29.7-9.2,44.6c-0.3,1.4,0.1,3,0.2,4.4c1.4-0.4,2.9-0.8,4.3-1.3
		c0.4-0.1,0.7-0.5,1.1-0.7c3.4-2.2,6.7-4.6,10.2-6.7c7-4,14.2-7.9,21.4-11.8c2.2-1.2,2.4-2.9,2.4-5.2c0.1-9.9-0.7-19.9,1-29.5
		c1.7-10.2,6-20,8.9-30C130.4,617.5,131.2,612.4,132,608.6z M480.6,365c-0.2,5.2,0.2,10.2,5.8,12.7c0.4,0.2,0.6,0.6,1,0.9
		c0.9,0.6,1.8,1.6,2.9,1.8c2.7,0.5,5.4,0.8,8.2,1.1c5.9,0.6,11.7,1.1,17.6,1.8c4.3,0.5,5.5,0.3,4.5,5.4c-0.6,2.9-0.9,5.9-1.4,8.8
		c-1.1,6.4-2.2,12.8-3.5,19.1c-3,14.5-6.2,29.1-9.3,43.6c-0.2,1.1,0.1,2.2,0.2,3.4c1.2-0.4,2.5-0.5,3.4-1.2c1.8-1.3,3.4-2.8,5.1-4.3
		c3.7-3.2,7.4-6.3,10.9-9.7c2.7-2.7,5-5.7,7.4-8.7c2.5-3.2,5.4-6.3,5.3-10.7c-0.1-5.7-0.6-11.4-0.8-17.1c-0.3-6.9-0.1-13.9,1.8-20.6
		c2.6-9.1,5.2-18.1,7.8-27.2c1.9-6.7,3.8-13.4,3.5-20.4c-0.2-4.4-0.8-8.8-1.3-13.2c-0.1-1.3,0.3-2.9-0.4-3.8
		c-3.5-4.8-6.5-9.9-13.4-11.4c-8.5-1.8-17-3.5-25.7-4.5c-0.8-0.1-1.4-1.1-2.1-1.7c-1-1-1.7-2.5-2.8-3c-4.1-1.6-8.4-2.8-12.5-4.4
		c-2.1-0.8-3-0.1-3.4,1.7c-0.5,1.8-0.9,3.7-1.2,5.6c-1,6-1.5,12.3-3.2,18.1c-1.1,3.6-1.6,7.1-2.1,10.8c-0.7,5.6-1,11.1-1.7,16.7
		c-0.1,1-1,2-1.1,3C480.1,360.2,480.4,362.6,480.6,365z M415.4,332.4c-0.7-5.1-0.8-10.5-5.3-14.1c-1.8-1.4-4-2.3-6.1-3.3
		c-1.7-0.9-4.1-1.3-4.1-3.8c0.1-3-1.8-3.7-4.1-4.5c-2.1-0.7-4.3-1.3-6.1-2.6c-1.5-1.1-2.4-1.5-4.3-0.8c-2.1,0.8-1.9,2.6-2.3,4
		c-1.8,6.8-3.5,13.6-4.9,20.5c-1.5,7.3-2.6,14.6-3.8,22c-0.6,4.2-1,8.4-1.4,12.6c-0.1,0.8,0,1.8,0.4,2.5c1.9,4,4.6,7.3,8.7,9.2
		c4.4,2,6.7,5.1,6.1,10.2c-0.8,7.4-2.3,14.5-4.8,21.5c-2.5,7.2-4.8,14.4-7.2,21.6c-2.2,6.8-4.4,13.7-6.6,20.5
		c-0.4,1.3-0.5,2.6,1.5,2.8c4.5,0.4,9.1,0.7,13.6,1.2c1.8,0.2,3.2,0,3.8-1.8c0.8-2.5,1.6-5.1,2.1-7.7c2-9.9,3.8-19.8,7.8-29.2
		c2.4-5.7,3.9-11.8,4.9-17.9c1-5.9,1.4-11.7,3-17.6c2.5-9.2,4.3-18.6,6.2-28C413.9,344.1,414.5,338.3,415.4,332.4z"/>
	<path d="M170.9,773.9c-4.1-0.8-8.2-1.9-13-0.7c0-2.3,0-4.5,0-6.7c-0.1-8,0-15.9-0.2-23.9c-0.2-8.5-0.8-16.9-0.8-25.4
		c0-10.1,0.2-20.3,0.5-30.4c0.3-8.9,2.3-17.4,5.9-25.6c2.8-6.3,5.3-12.8,7.8-19.3c1-2.6-0.1-4.1-2.8-4.4c-5.6-0.6-11.2-1.4-16.7-2.2
		c-1.2-0.2-2.4-0.5-3.6-0.6c-3.7-0.4-3.9-0.7-3.5-4.3c0.7-6.4,1.5-12.9,2-19.3c0.7-9.7,1.5-19.3,3.9-28.7c0.6-2.3,1-4.7,1.2-7.1
		c0.3-3,1.4-4.2,4.5-3.9c2.4,0.2,4.7,1.1,7.1,1.4c3.7,0.5,7.4,1.1,11.1,1.3c6.4,0.2,6.4,0,7.7,6.6c1.5,0,3.1,0,4.7,0
		c86.4,0,172.9,0,259.3,0c20.3,0,40.6,0.3,60.9-0.1c8.9-0.2,15.5,3.6,20.8,9.8c5.3,6.2,9.9,13.1,14.7,19.7c1.5,2,2.6,4.3,3.7,6.5
		c0.3,0.6,0.3,1.8-0.1,2.4c-1.7,2.5-3.6,4.8-5.3,7.3c-1.9,2.7-3.8,5.5-5.4,8.4c-0.5,0.9-0.3,2.2-0.3,3.3c-0.1,4.2-0.4,8.5-0.1,12.7
		c0.6,10.1,1.4,20.2,2.2,30.2c0.5,6.7,1.2,13.4,1.8,20.1c0.7,7.2,1.5,14.4,2.2,21.6c0.5,5.4,1,10.9,1.3,16.3
		c0.5,9.6,0.8,19.2,1.2,28.8c0.1,3.4-0.2,3.6-3.5,3.6c-12.1,0.1-24.1,0.2-36.2,0.3c-3.4,0-3.5-0.1-3.5-3.5c0-7.6-0.2-15.3,0-22.9
		c0.3-14.8,0.7-29.6,1.1-44.4c0.3-11.6,0.5-23.2,1.1-34.8c0.3-7.3,1.1-14.5,1.7-21.7c0.3-4,0-4.5-3.9-4.6
		c-15.2-0.3-30.3-0.6-45.5-0.8c-10.6-0.2-21.1-0.3-31.7-0.5c-16.4-0.2-32.8-0.4-49.2-0.5c-6.9-0.1-13.7,0-20.6,0.1
		c-14.4,0.2-28.8,0.6-43.2,0.7c-13.4,0.1-26.9,0.5-40.3-0.4c-19.3-1.2-38.7-0.4-58-0.3c-3.4,0-6.7,0.2-10.1,0.6
		c-3.1,0.4-3.7,1.4-4.2,4.6c-2.2,16-1.9,32-2.1,48.1c-0.1,13-0.6,26-0.4,39c0.2,10.3,1.2,20.5,1.9,30.8c0.2,2.9,0.4,5.9,0.4,8.8
		c0,0.7-0.8,1.8-1.4,1.9c-2.7,0.7-5.5,1.2-8.2,1.8c-0.7,0.2-1.5,0.3-2.2,0.5C181,773.9,176,773.9,170.9,773.9z"/>
	<path d="M66.8,125.3c0.1,1.7,0.2,2.9,0.2,4.2c0,19.8,0,39.6,0.1,59.4c0,3.9,0,3.9,4,3.9c100,0,200,0,299.9,0c6.1,0,5-0.3,5.1,5.2
		c0.1,2.7,0,5.4,0,8.1c0,14.7,0.1,14.8-6.7,27.9c-3.3,6.5-7.8,12.2-14.1,16.1c-3.8,2.3-7.8,3.5-12.5,3.5c-98-0.1-196-0.1-294-0.1
		c-1.1,0-2.2,0-3.7,0c-0.1-1.1-0.2-2-0.2-2.9c0-32.9,0-65.8,0-98.7c0-2.8,0.2-5.5,0.5-8.3c0.1-0.8,0.5-1.7,1.1-2.2
		c6.2-5.2,12.5-10.3,18.7-15.4C65.6,125.8,65.9,125.7,66.8,125.3z"/>
	<path d="M64.5,53.6c1.7-0.1,1.8,1,2,2.1c0.2,1.5,0.2,3.1,0.3,5.1c1.7,0,3.4,0,5.1,0c90.4,0,180.7,0,271.1,0c4.5,0,9,0.5,13.2,2
		c2.4,0.9,4.5,2.7,6.4,4.4c2.9,2.7,5.7,5.5,8.2,8.6c3.5,4.2,4.7,9.1,4.5,14.7c-0.4,7.9,0.3,15.8,0.4,23.7c0.1,22,0.4,43.9,0.1,65.9
		c-0.1,7.9,1.5,6.5-6.6,6.6c-2.9,0.1-5.7-0.1-8.6,0c-2.1,0.1-2.6-0.7-2.7-2.7c-0.3-17.8-0.6-35.6-1-53.4c-0.1-2.5-0.2-5.1-0.9-7.4
		c-1.2-4.1-4.2-5.7-9.3-5.7c-15.2-0.1-30.4-0.2-45.6-0.3c-83.9,0-167.9,0-251.8,0c-5.9,0-4.8,0.2-4.8-4.9c0-18.5,0-37-0.1-55.5
		c0-2.7,0.8-3.5,3.4-3.3c3.7,0.2,7.5,0,11.2,0.1C60.2,53.7,63.7,53.7,64.5,53.6z"/>
	<path d="M491.8,104.4c-2.6-3.8-2.1-8.2-0.4-12.3c5-12.4,9-25.3,16.4-36.7c0.7-1.1,1.2-2.5,1.7-3.8c1.3-3.4,4.2-4.5,7.4-3
		c4,1.8,8.1,3.5,12.2,5.1c1.7,0.7,2.2,1.5,1.1,3.1c-0.4,0.6-0.5,1.5-1,2.1c-0.9,1.4-0.4,2.4,1,2.9c4.3,1.6,8.7,2.9,12.9,4.6
		c3.7,1.5,7.4,3,10.7,5.1c1,0.6,1.1,3.1,1.1,4.8c-0.5,13.4-4.1,26.2-7.7,38.9c-3.5,12.5-5.2,25.3-6.1,38.2
		c-1,13.9-1.6,27.9-2.7,41.8c-0.9,11-5,20.7-12.9,28.5c-2.9,2.8-6.7,4.7-10.3,6.6c-4.1,2.1-8.3,4.2-12.7,5.5
		c-5.8,1.7-11.8,2.5-17.6,3.8c-3,0.7-5.9,1.9-8.9,2.6c-7.5,1.7-15,3.4-22.5,5c-10.3,2.1-20.6,4-30.8,6.1c-8.6,1.7-17.1,3.6-25.6,5.4
		c-2.7,0.6-4.3-1.9-4.1-5.7c0.6-8.1,1.4-16.2,1.5-24.4c0.2-9.5-0.2-18.9-0.4-28.4c0-1.9,0.1-3.8,0.4-5.7c0.4-2.8,2.8-3.3,4.8-3.6
		c3.6-0.4,7.3-0.3,10.9-0.5c2.3-0.1,4.7-0.2,7-0.1c2,0,2.7-0.8,2.3-2.7c-0.4-2.6-0.7-5.3-1.3-7.9c-2.5-11.8-4.9-23.6-4.1-35.8
		c0.4-6.2,1.9-12.1,5.2-17.4c1-1.7,2-3.5,2.6-5.3c0.3-0.9,0-2.7-0.7-3.1c-3.9-2.5-7.8-5.1-12-6.8c-2.8-1.1-5.1-2.9-6-5.3
		c-1.6-4.3-3.3-8.9-2.1-13.6c2-7.9,4.9-15.5,8.7-22.6c4.1-7.5,8.6-14.8,12.7-22.2c1.2-2.2,2.4-2.6,4.7-1.5c4.3,2.2,8.8,4,13.3,5.8
		c2.1,0.9,2.5,2,1.4,4c-1.5,2.6-1.3,3.2,1.5,4.4c3.9,1.8,7.7,3.5,11.5,5.3c3.6,1.7,4.7,4.3,3.1,7.8c-3.8,8.6-7.6,17.2-11.3,25.8
		c-2.1,4.9-4.1,9.9-6.3,14.8c-1.2,2.5-3.3,4.7-4,7.4c-1.2,4.7-2,9.6-2.4,14.5c-0.3,5,0.2,10,0.3,15c0.1,10.1,2.7,19.9,4.9,29.7
		c0.1,0.3,0.2,0.5,0.2,0.7c1.6,7.4,1.1,6.6,9.1,6.9c4.4,0.2,8.9-1,13.3-1.6c11.2-1.4,22.4-2.4,33.5-4.1c5.4-0.9,10.9-2.5,15.9-4.8
		c4.4-2,7.2-6.1,8.1-11.1c2-11.4,3.4-22.8,3.3-34.3c0-4.3-1.1-8.6-2.3-12.7c-0.4-1.4-2.6-2.6-4.3-3.3c-5.5-2.2-11.1-3.8-16.5-6.1
		c-2.1-0.9-3.5-3-5.4-4.5C493.5,105.2,492.6,104.8,491.8,104.4z"/>
	<path d="M354.3,304.4c2.2,0.6,2.3,2.1,2.2,4c-0.3,4.3,0.4,2.9,4.2,5.1c3,1.7,6.4,3.5,8.1,6.2c1.6,2.5,1.7,6.4,1.4,9.5
		c-1.2,12.1-3.8,24-6.6,35.9c-1.8,7.5-2.8,15.3-4.3,22.9c-0.3,1.3-1.1,2.8-2.1,3.7c-4.2,3.8-5.7,8.6-7.2,13.9
		c-3.3,11.5-0.6,22.5,1.4,33.6c1.4,7.9,2.6,15.8,4.1,23.7c0.6,3.3,2.1,4.5,5.3,4.3c5.2-0.2,10.4,0.5,15.6,0.6
		c4.6,0.1,9.3-0.2,13.9-0.3c2.9-0.1,5.7,0,8.5-0.4c6.3-0.8,12.7-1.5,18.9-2.9c1.7-0.4,3.7-2.6,4.4-4.4c2.6-6.2,4.9-12.6,6.8-19
		c2.8-9.3,5.1-18.8,7.6-28.2c1.9-7.2,3.9-14.4,5.5-21.6c0.5-2.3,0.5-4.9,0-7.2c-0.3-1.3-1.7-2.7-3-3.4c-3.1-1.8-6.5-3-9.6-4.9
		c-2.5-1.6-4.8-3.6-6.9-5.7c-1-1-1.6-2.7-1.8-4.2c-1.3-10.8-0.1-21.4,2.7-31.9c2.1-8.1,4.5-16.1,6.8-24.2c0.5-1.8,0.9-3.7,1.2-5.6
		c0.3-1.4,1-1.6,2.3-1.2c3.9,1.5,7.8,2.8,11.6,4.5c0.8,0.4,1.9,1.8,1.8,2.5c-1,4.8,2.6,5.8,5.7,6.9c5.1,1.8,9.4,4.4,13.3,8.1
		c2.8,2.6,4,5.9,4.3,9.4c0.5,27.7-6.2,43.1-7.3,44.9c-0.5,0.7-1.1,1.7-0.9,2.5c1.2,6.7,0.2,13.1-1.7,19.5
		c-3.5,11.8-6.9,23.6-10.4,35.4c-1.7,5.8-3.9,11.4-5.6,17.2c-2.1,6.9-3.8,14-5.7,21c-2.7,10-5,20.2-8.3,30
		c-2.6,7.8-7.8,13.9-15,18.1c-9.2,5.5-19.6,7-29.8,9c-9.9,1.9-19.8,3.9-29.7,6c-3.8,0.8-4.5,0.3-5.1-3.5c-1.3-8.2-2.7-16.4-4-24.6
		c-2.3-13.8-4.6-27.6-6.9-41.4c-1.3-8.2-2.6-16.3-3.7-24.5c-0.9-6.4-1.5-12.8-2.1-19.3c-0.5-5.8-1.1-11.5-1-17.3
		c0.1-6.1,0.8-12.2,3.6-17.8c1.2-2.3,2.9-4.5,4.6-6.5c4.3-4.8,2.6-6-1.7-7.7c-6.3-2.6-9.3-10.7-8.6-15.9c0.6-4.1,0.9-8.1,1.6-12.2
		c0.3-2.1,2.5-14.8,3.3-19c1.4-6.8,3.1-14.4,4.6-21.2C342.6,298.1,342.6,301.1,354.3,304.4z"/>
	<path d="M202.9,418.8c0.5-2.1,1.2-4.2,1.5-6.4c0.5-3,0.8-6,0.9-9c0.1-3.4,0-6.8-0.4-10.1c-0.5-4.1-1.2-8.2-2.1-12.2
		c-0.5-2.5-2-3.9-4.9-3.9c-5,0-6.5-1.7-5.9-6.7c0.7-6.7,1.7-13.4,2.5-20c0.6-4.6,1.2-9.1,1.7-13.7c0.4-3.3,0.7-6.7,1-10
		c0.4-4.1,0.7-8.2,1-12.3c0.1-1.8,0.1-3.7,0.5-5.4c1-4.4,2.3-4.5,6.2-2.3c2.5,1.4,4.9,3,7.4,4.5c0.6,0.3,1.3,0.5,2,0.5
		c5,0.1,10,0.1,15.1,0.1c6.7-0.1,6.5-0.1,6.8,6.7c0.3,9.5-1,18.9-2,28.4c-0.6,5.2-0.7,10.5-1.1,15.8c-0.2,2.9-0.5,5.8-1,8.7
		c-1,5.3-3.2,6.9-8.4,7.1c-1.8,0.1-3.6,0.4-5.3,0.9c-0.6,0.2-1.4,1.5-1.3,2.1c0.4,3.1,1.1,6.1,1.8,9.1c3.6,14.1,2.8,27.9-2.3,41.5
		c-0.6,1.5-1.4,3-2.1,4.5c-1.2,2.5-1.4,4.9-0.1,7.5c3.3,6.8,6.5,13.6,9.7,20.4c5.3,11,10.4,22.1,16.1,32.8c3,5.6,1.4,10.6-0.6,15.6
		c-1.3,3.1-3.3,6.1-5.4,8.8c-3.4,4.1-7.1,7.9-10.8,11.7c-2.1,2.1-3.7,1.8-5-1c-2.1-4.5-4-9.2-5.9-13.8
		c-6.2-14.4-12.4-28.9-18.5-43.3c-5.3-12.3-10.6-24.6-15.8-36.9c-1.5-3.6-2.8-7.4-4.3-11.1c-0.4-0.9-1.1-1.6-2.2-3.1
		c-0.6,2.1-1.3,3.4-1.4,4.7c-0.6,7.7-1.1,15.4-1.7,23c-0.7,8.8-1.6,17.6-2.4,26.3c-0.3,2.9-0.5,5.9-0.6,8.8
		c-0.7,15.4-1.4,30.8-2.1,46.2c-0.1,2-0.8,2.7-2.8,2.7c-8-0.1-16-0.1-24-0.1c-3.1,0-3.4-0.5-2.9-3.6c2-13,4.2-26.1,5.9-39.2
		c1.6-12,2.6-24,4.2-36c1.7-13.3,3.6-26.5,5.6-39.7c1.6-10.2,3.5-20.2,5.2-30.4c0.5-3,0.4-5.9-1.1-8.8c-5.5-10.5-9.2-21.6-10.6-33.3
		c-0.8-6.8-0.8-13.7,1.3-20.3c1.1-3.6,2.2-7.3,3.9-10.6c1.2-2.3,3.5-4.2,5.4-6.1c0.4-0.4,1.7-0.3,2.2,0.1c0.9,0.6,1.7,1.6,2.1,2.6
		c4,8.3,8.3,16.4,11.6,24.9c4.4,11,7.9,22.3,12,33.4c4.4,11.9,9.2,23.7,13.9,35.5c1.5,3.8,3.2,7.5,4.9,11.2c0.6,1.3,1.4,2.5,2.1,3.7
		C202.3,418.8,202.6,418.8,202.9,418.8z"/>
	<path d="M45,321.4c0-16.5,0-33,0-49.5c0-3.4,0.4-3.6,3.8-3.3c1.8,0.2,3.6,0.2,5.4,0c2.9-0.3,4,1.5,4.6,3.8c0.3,1.3,0.4,2.7,0.4,4.1
		c0,7.6,0,15.1,0,22.7c0,2.3,0.3,4.7,0.6,7c0.3,2.3,4.2,5.3,6.9,5.3c4.8,0.1,9.5,0.2,14.3,0.2c8.3-0.1,16.6-0.4,24.9-0.4
		c4.1,0,7.9,1,11.3,3.7c8.7,6.7,13.2,16,16.9,25.9c5,13.3,5.2,27.1,3,41c-0.4,2.5-1.7,4.9-2.6,7.3c-6.1,15.5-12.5,31-18.2,46.6
		c-3.8,10.5-6.6,21.3-9.8,31.9c-2.7,8.9-5.6,17.8-8.3,26.8c-1.7,5.7-3,11.6-4.6,17.3c-2.1,7.5-4.2,15-6.5,22.4
		c-0.2,0.7-1.2,1.5-1.9,1.6c-0.6,0-1.6-0.8-1.9-1.5c-2-5.4-3.7-11-5.9-16.3c-3.7-9.6-7.7-19-11.5-28.6c-0.3-0.8,0.3-2.1,0.8-3
		c4.4-7.2,9.1-14.3,13.4-21.7c10.1-17.1,19.2-34.7,27-53c2.2-5.2,3.8-10.8,5.3-16.3c1.6-6.4-0.7-14.7-7.8-17.4
		c-1-0.4-2.2-0.6-3.2-0.6c-15.4,0-30.9,0-46.3,0c-1.5,0-3,0-4.4-0.2c-3.9-0.6-5.9-3.2-5.9-7.1C45,353.9,45,337.6,45,321.4z"/>
	<path d="M290.8,537.7c-0.3-5.2-0.7-9.7-0.7-14.1c-0.1-11.2,0-22.4,0.1-33.6c0.1-14,0.4-28.1,0.6-42.1c0.1-10.1-0.3-20.2,0.6-30.1
		c0.6-6.2,0.3-12.3,0.4-18.5c0.1-3.5,0.7-7,1.1-10.5c0.7-6-4.1-11.4-10.2-11.2c-7.4,0.3-14.7,0.8-22.1,1c-3.1,0.1-6.2,0-9.3-0.5
		c-2.1-0.3-4.1-1.3-4.2-4.1c-0.2-3.3-0.8-6.5-0.8-9.8c0-12.8-0.4-25.5,0.6-38.2c0.5-6.3,0.7-12.5,1.2-18.8c0-0.6,0.6-1.4,1.2-1.7
		c2.5-1.4,5-1.7,7.9-0.3c1.3,0.7,3.3,0.6,4.7,0.2c2.7-0.7,4.4-0.1,5.5,2.4c0.9,1.9,2.1,2.9,4.6,2.8c7.3-0.3,14.7-0.5,22-0.2
		c3.5,0.1,7,1.1,10.4,2.1c7.7,2.1,10.6,8.1,12,15.3c0.4,2,1.3,3.9,1.8,5.8c0.5,1.9,1,3.9,1.1,5.8c0.3,6.6,0.6,13.1,0.5,19.7
		c0,4.4-0.5,8.7-1,13.1c-0.8,7.3-1.8,14.5-2.4,21.8c-1,12-1.6,24-2.5,36c-0.8,10.4-1.8,20.7-2.6,31c-0.7,9.5-1.4,19.1-1.9,28.7
		c-0.5,9-0.6,18-1.1,27c-0.2,3.7-0.7,7.4-1.1,11.1c-0.3,2.5-1.7,3.6-4.2,4.5C299.2,533.5,295.5,535.5,290.8,537.7z"/>
	<path d="M132,608.6c-0.8,3.8-1.6,8.9-3,13.7c-2.9,10-7.1,19.8-8.9,30c-1.6,9.6-0.9,19.7-1,29.5c0,2.3-0.2,4-2.4,5.2
		c-7.2,3.8-14.3,7.7-21.4,11.8c-3.5,2-6.8,4.4-10.2,6.7c-0.4,0.2-0.7,0.6-1.1,0.7c-1.4,0.5-2.8,0.9-4.3,1.3c-0.1-1.5-0.5-3-0.2-4.4
		c3-14.9,6.3-29.7,9.2-44.6c0.7-3.8,0.5-7.9,0.3-11.9c-0.1-2.3-1.5-4.4-4-5c-4.9-1.2-9.9-2.6-14.9-3.3c-7.3-1-14.5-2.2-21.1-5.7
		c-2.1-1.1-4.2-2.1-6.3-3.3c-0.4-0.2-0.7-0.9-0.9-1.5c-2-4.5-1.9-9.1-0.9-13.7c3.1-14.2,6.3-28.3,9.5-42.5c0.5-2.1,1.3-4.1,2-6.2
		c0.6-1.7,1.7-2.5,3.6-2c0.3,0.1,0.7,0.1,1,0.2c6.2,3.2,13.2,3.4,19.9,4.6c4.3,0.8,5.3,1.8,4.7,6.1c-0.3,2.4,0.5,3.4,2.8,3.8
		c8.2,1.3,16.4,2.6,24.6,4.1c4.9,0.9,9.9,1.9,14.6,3.7c3.7,1.4,6.3,4.5,6.7,9C130.7,599.1,131.4,603.2,132,608.6z"/>
	<path d="M480.6,365c-0.2-2.4-0.4-4.9-0.4-7.3c0-1,0.9-2,1.1-3c0.6-5.6,1-11.2,1.7-16.7c0.4-3.6,1-7.2,2.1-10.8
		c1.8-5.8,2.2-12,3.2-18.1c0.3-1.9,0.7-3.7,1.2-5.6c0.5-1.8,1.3-2.6,3.4-1.7c4.1,1.6,8.4,2.8,12.5,4.4c1.2,0.5,1.9,2,2.8,3
		c0.6,0.7,1.3,1.7,2.1,1.7c8.6,1,17.2,2.7,25.7,4.5c6.9,1.5,9.9,6.5,13.4,11.4c0.6,0.9,0.2,2.5,0.4,3.8c0.4,4.4,1.1,8.8,1.3,13.2
		c0.3,7-1.6,13.7-3.5,20.4c-2.6,9-5.3,18.1-7.8,27.2c-1.9,6.7-2.1,13.7-1.8,20.6c0.2,5.7,0.7,11.4,0.8,17.1
		c0.1,4.4-2.8,7.5-5.3,10.7c-2.4,3-4.7,6-7.4,8.7c-3.5,3.4-7.2,6.5-10.9,9.7c-1.7,1.5-3.3,3-5.1,4.3c-1,0.7-2.3,0.8-3.4,1.2
		c-0.1-1.1-0.4-2.3-0.2-3.4c3.1-14.5,6.3-29,9.3-43.6c1.3-6.3,2.4-12.7,3.5-19.1c0.5-2.9,0.8-5.9,1.4-8.8c1.1-5.1-0.1-4.9-4.5-5.4
		c-5.9-0.7-11.7-1.2-17.6-1.8c-2.7-0.3-5.5-0.5-8.2-1.1c-1-0.2-1.9-1.2-2.9-1.8c-0.4-0.2-0.6-0.7-1-0.9
		C480.8,375.2,480.4,370.2,480.6,365z"/>
	<path d="M415.4,332.4c-0.9,5.9-1.5,11.7-2.6,17.4c-1.8,9.4-3.7,18.8-6.2,28c-1.6,5.8-2.1,11.7-3,17.6c-1,6.1-2.6,12.2-4.9,17.9
		c-3.9,9.4-5.8,19.3-7.8,29.2c-0.5,2.6-1.3,5.2-2.1,7.7c-0.6,1.8-2,2-3.8,1.8c-4.5-0.5-9.1-0.9-13.6-1.2c-2-0.2-1.9-1.4-1.5-2.8
		c2.1-6.9,4.3-13.7,6.6-20.5c2.4-7.2,4.7-14.4,7.2-21.6c2.4-7,4-14.1,4.8-21.5c0.5-5.2-1.8-8.2-6.1-10.2c-4.1-1.9-6.8-5.3-8.7-9.2
		c-0.4-0.7-0.5-1.7-0.4-2.5c0.4-4.2,0.8-8.4,1.4-12.6c1.1-7.3,2.3-14.7,3.8-22c1.4-6.9,3.1-13.7,4.9-20.5c0.4-1.4,0.2-3.1,2.3-4
		c1.9-0.7,2.8-0.3,4.3,0.8c1.7,1.2,4,1.9,6.1,2.6c2.3,0.7,4.1,1.5,4.1,4.5c-0.1,2.5,2.4,2.9,4.1,3.8c2.1,1.1,4.3,1.9,6.1,3.3
		C414.5,322,414.6,327.3,415.4,332.4z"/>
</g>
</svg>
