<?xml version="1.0" standalone="no"?>
<!DOCTYPE svg PUBLIC "-//W3C//DTD SVG 20010904//EN"
 "http://www.w3.org/TR/2001/REC-SVG-20010904/DTD/svg10.dtd">
<svg version="1.0" xmlns="http://www.w3.org/2000/svg"
 width="860.000000pt" height="860.000000pt" viewBox="0 0 860.000000 860.000000"
 preserveAspectRatio="xMidYMid meet">
<metadata>
Created by potrace 1.14, written by Peter Selinger 2001-2017
</metadata>
<g transform="translate(0.000000,860.000000) scale(0.100000,-0.100000)"
fill="#000000" stroke="none">
<path d="M2143 8559 c-47 -14 -75 -54 -163 -232 -197 -403 -338 -798 -575
-1612 -86 -294 -96 -337 -92 -390 13 -181 171 -315 545 -464 122 -49 314 -144
359 -177 47 -36 52 -77 19 -177 -15 -45 -58 -138 -97 -207 -146 -263 -202
-481 -202 -785 0 -252 40 -427 217 -950 121 -359 165 -513 191 -660 15 -86 14
-91 -3 -115 l-19 -25 -379 -6 c-339 -6 -582 -19 -654 -35 -39 -9 -79 -54 -96
-109 -13 -40 -18 -130 -25 -460 -13 -681 -35 -1237 -65 -1710 -16 -252 -14
-296 17 -357 41 -80 55 -81 349 -29 224 39 455 69 976 126 1018 111 1377 160
1839 251 1486 294 2296 840 2550 1719 55 191 72 341 115 995 83 1282 98 1461
156 1855 55 372 91 532 235 1037 170 601 207 784 196 978 -12 203 -62 316
-201 456 -50 50 -127 114 -171 143 -95 63 -341 184 -480 236 -102 39 -145 70
-145 106 0 12 14 61 31 110 29 84 30 91 15 114 -21 32 -113 60 -420 131 -133
30 -293 73 -357 95 -129 44 -173 48 -227 20 -45 -23 -73 -53 -100 -106 -25
-52 -156 -421 -322 -910 -73 -214 -169 -484 -212 -600 -123 -324 -121 -317
-121 -430 0 -152 44 -254 158 -366 100 -99 170 -132 570 -274 368 -130 392
-143 432 -233 l26 -54 -7 -227 c-20 -661 -46 -959 -126 -1426 -34 -203 -67
-311 -125 -422 -171 -324 -479 -501 -990 -570 -165 -22 -753 -25 -850 -4 -114
25 -210 93 -253 178 -42 82 -186 603 -262 948 -41 182 -94 502 -117 690 -24
207 -24 630 -1 765 36 202 161 613 386 1270 45 129 93 279 107 334 93 361 29
550 -249 733 -88 58 -331 175 -494 238 -134 51 -182 83 -182 121 0 13 12 54
26 91 29 79 27 114 -14 162 -24 29 -59 43 -321 132 -292 98 -332 107 -398 88z"/>
</g>
</svg>
